<?xml version="1.0" encoding="UTF-8" standalone="no"?>
<!-- Created with Inkscape (http://www.inkscape.org/) -->

<svg
   xmlns:dc="http://purl.org/dc/elements/1.1/"
   xmlns:cc="http://creativecommons.org/ns#"
   xmlns:rdf="http://www.w3.org/1999/02/22-rdf-syntax-ns#"
   xmlns:svg="http://www.w3.org/2000/svg"
   xmlns="http://www.w3.org/2000/svg"
   xmlns:sodipodi="http://sodipodi.sourceforge.net/DTD/sodipodi-0.dtd"
   xmlns:inkscape="http://www.inkscape.org/namespaces/inkscape"
   width="1620"
   height="1080"
   id="svg2879"
   version="1.1"
   inkscape:version="0.47 r22583"
   sodipodi:docname="joystick.svg">
  <defs
     id="defs2881">
    <inkscape:perspective
       sodipodi:type="inkscape:persp3d"
       inkscape:vp_x="0 : 526.18109 : 1"
       inkscape:vp_y="0 : 1000 : 0"
       inkscape:vp_z="744.09448 : 526.18109 : 1"
       inkscape:persp3d-origin="372.04724 : 350.78739 : 1"
       id="perspective2887" />
  </defs>
  <sodipodi:namedview
     id="base"
     pagecolor="#ffffff"
     bordercolor="#666666"
     borderopacity="1.0"
     inkscape:pageopacity="0.0"
     inkscape:pageshadow="2"
     inkscape:zoom="0.5"
     inkscape:cx="600.48637"
     inkscape:cy="643.71774"
     inkscape:document-units="mm"
     inkscape:current-layer="layer1"
     showgrid="false"
     units="in"
     inkscape:window-width="1440"
     inkscape:window-height="775"
     inkscape:window-x="96"
     inkscape:window-y="14"
     inkscape:window-maximized="0" />
  <metadata
     id="metadata2884">
    <rdf:RDF>
      <cc:Work
         rdf:about="">
        <dc:format>image/svg+xml</dc:format>
        <dc:type
           rdf:resource="http://purl.org/dc/dcmitype/StillImage" />
        <dc:title></dc:title>
      </cc:Work>
    </rdf:RDF>
  </metadata>
  <g
     inkscape:label="Layer 1"
     inkscape:groupmode="layer"
     id="layer1"
     transform="translate(0,27.64025)">
    <path
       style="fill:none;stroke:#000000;stroke-width:1;stroke-linecap:butt;stroke-miterlimit:4;stroke-opacity:1;stroke-dashoffset:0;stroke-dasharray:none"
       d="M 262.78125 448.6875 C 247.30486 448.6875 234.84375 463.8207 234.84375 482.59375 L 234.84375 490.09375 C 256.80828 493.07352 273.71875 511.87432 273.71875 534.65625 C 273.71875 557.43818 256.80828 576.27023 234.84375 579.25 L 234.84375 586.65625 C 234.84375 605.02111 246.77409 619.86235 261.78125 620.5 L 261.78125 620.5625 L 290.4375 620.5625 C 290.60694 620.57083 290.76599 620.59375 290.9375 620.59375 C 296.59658 620.59375 301.1875 616.00283 301.1875 610.34375 C 301.1875 604.68467 296.59658 600.09375 290.9375 600.09375 C 290.86275 600.09375 290.79312 600.09216 290.71875 600.09375 L 290.71875 600.0625 C 288.85068 599.94663 287.375 598.42851 287.375 596.53125 C 287.375 594.63375 288.85034 593.08426 290.71875 592.96875 L 290.71875 586.65625 L 290.71875 576 L 286.28125 576 L 286.28125 579.375 C 286.29205 579.37458 286.3015 579.375 286.3125 579.375 C 286.76827 579.375 287.15625 579.733 287.15625 580.1875 C 287.15625 580.64197 286.76827 581.03125 286.3125 581.03125 C 285.87679 581.03125 285.5306 580.67671 285.5 580.25 L 277.4375 580.25 L 277.4375 576 L 273 576 L 273 565.375 L 277.4375 565.375 L 277.4375 561.125 L 285.375 561.125 C 285.37465 561.1151 285.375 561.10375 285.375 561.09375 C 285.375 560.63925 285.73174 560.28125 286.1875 560.28125 C 286.64327 560.28125 287.03125 560.63925 287.03125 561.09375 C 287.03125 561.51641 286.69259 561.85955 286.28125 561.90625 L 286.28125 565.375 L 290.71875 565.375 L 290.71875 504 L 286.28125 504 L 286.28125 507.375 C 286.29205 507.37458 286.3015 507.375 286.3125 507.375 C 286.76827 507.375 287.15625 507.733 287.15625 508.1875 C 287.15625 508.64197 286.76827 509.03125 286.3125 509.03125 C 285.87679 509.03125 285.5306 508.67671 285.5 508.25 L 277.4375 508.25 L 277.4375 504 L 273 504 L 273 493.375 L 277.4375 493.375 L 277.4375 489.125 L 285.375 489.125 C 285.37465 489.1151 285.375 489.10375 285.375 489.09375 C 285.375 488.63925 285.73174 488.28125 286.1875 488.28125 C 286.64327 488.28125 287.03125 488.63925 287.03125 489.09375 C 287.03125 489.51641 286.69259 489.85955 286.28125 489.90625 L 286.28125 493.375 L 290.71875 493.375 L 290.71875 482.59375 L 290.71875 476.3125 C 288.85068 476.19663 287.375 474.67851 287.375 472.78125 C 287.375 470.80858 288.96483 469.1875 290.9375 469.1875 C 291.05483 469.1875 291.16682 469.20769 291.28125 469.21875 C 296.78187 469.03792 301.1875 464.54443 301.1875 459 C 301.1875 453.34092 296.59658 448.75 290.9375 448.75 C 290.86275 448.75 290.79312 448.74841 290.71875 448.75 L 264.21875 448.75 C 263.74129 448.72083 263.26489 448.6875 262.78125 448.6875 z M 265.8125 466.59375 L 276.4375 466.59375 L 276.4375 477.21875 L 265.8125 477.21875 L 265.8125 466.59375 z M 265.8125 592.09375 L 276.4375 592.09375 L 276.4375 602.71875 L 265.8125 602.71875 L 265.8125 592.09375 z "
       transform="translate(0,-27.64025)"
       id="path2926" />
    <path
       style="fill:none;stroke:#000000;stroke-width:1;stroke-linecap:butt;stroke-miterlimit:4;stroke-opacity:1;stroke-dasharray:none;stroke-dashoffset:0"
       d="M 331.875 110.5625 C 331.52131 110.5625 331.15696 110.59002 330.8125 110.625 L 303.6875 110.625 L 302.6875 110.625 L 302.6875 110.65625 C 287.68004 111.32253 275.75 126.85909 275.75 146.0625 L 275.75 161.5625 C 295.7539 163.43442 311.40625 180.25614 311.40625 200.75 C 311.40625 221.24386 295.7539 238.09683 275.75 239.96875 L 275.75 254.875 C 275.75 274.0781 287.68039 289.6145 302.6875 290.28125 L 302.6875 290.3125 L 303.6875 290.3125 L 330.625 290.3125 C 331.03187 290.36163 331.45488 290.40625 331.875 290.40625 C 337.53408 290.40625 342.125 285.81533 342.125 280.15625 C 342.125 274.49717 337.53408 269.90625 331.875 269.90625 C 331.79207 269.90625 331.70746 269.90429 331.625 269.90625 L 331.625 269.875 C 329.77177 269.7438 328.28125 268.23037 328.28125 266.34375 C 328.28125 264.45679 329.7713 262.91196 331.625 262.78125 L 331.625 254.875 L 331.625 251.03125 L 318.5 251.03125 L 318.5 254.46875 C 318.5099 254.4684 318.52125 254.46875 318.53125 254.46875 C 318.98703 254.46875 319.34375 254.858 319.34375 255.3125 C 319.34375 255.76698 318.98703 256.125 318.53125 256.125 C 318.07549 256.125 317.6875 255.76698 317.6875 255.3125 C 317.6875 255.3026 317.68715 255.29125 317.6875 255.28125 L 309.65625 255.28125 L 309.65625 251.03125 L 296.375 251.03125 L 296.375 240.40625 L 309.65625 240.40625 L 309.65625 236.15625 L 317.5625 236.15625 C 317.59306 235.72951 317.9393 235.375 318.375 235.375 C 318.83078 235.375 319.21875 235.76425 319.21875 236.21875 C 319.21875 236.63141 318.89725 236.9406 318.5 237 L 318.5 240.40625 L 331.625 240.40625 L 331.625 161.03125 L 318.5 161.03125 L 318.5 164.46875 C 318.5099 164.4684 318.52125 164.46875 318.53125 164.46875 C 318.98703 164.46875 319.34375 164.858 319.34375 165.3125 C 319.34375 165.76698 318.98703 166.125 318.53125 166.125 C 318.07549 166.125 317.6875 165.76698 317.6875 165.3125 C 317.6875 165.3026 317.68715 165.29125 317.6875 165.28125 L 309.65625 165.28125 L 309.65625 161.03125 L 296.375 161.03125 L 296.375 150.40625 L 309.65625 150.40625 L 309.65625 146.15625 L 317.5625 146.15625 C 317.59306 145.72951 317.9393 145.375 318.375 145.375 C 318.83078 145.375 319.21875 145.76425 319.21875 146.21875 C 319.21875 146.63141 318.89725 146.9406 318.5 147 L 318.5 150.40625 L 331.625 150.40625 L 331.625 146.0625 L 331.625 138.125 C 329.7713 137.99429 328.28125 136.48071 328.28125 134.59375 C 328.28125 132.62108 329.90233 131 331.875 131 C 331.99233 131 332.10432 131.02019 332.21875 131.03125 C 337.71937 130.85042 342.125 126.35693 342.125 120.8125 C 342.125 115.15342 337.53408 110.5625 331.875 110.5625 z M 306.71875 116.40625 L 317.34375 116.40625 L 317.34375 127.03125 L 306.71875 127.03125 L 306.71875 116.40625 z M 306.71875 273.90625 L 317.34375 273.90625 L 317.34375 284.53125 L 306.71875 284.53125 L 306.71875 273.90625 z "
       transform="translate(0,-27.64025)"
       id="rect3009" />
    <g
       id="g2840"
       transform="matrix(-1,0,0,-1,419.77822,118.45446)"
       style="stroke-width:1;stroke-miterlimit:4;stroke-dasharray:none">
      <rect
         y="45.795624"
         x="86.072433"
         height="89.999321"
         width="112.49936"
         id="rect2812"
         style="fill:none;stroke:#000000;stroke-width:1;stroke-linecap:butt;stroke-miterlimit:4;stroke-opacity:1;stroke-dasharray:none;stroke-dashoffset:0" />
      <g
         transform="translate(0,-1.9398819)"
         id="g2830"
         style="stroke-width:1;stroke-miterlimit:4;stroke-dasharray:none">
        <g
           id="g2820"
           transform="translate(-0.30279186,0.34120999)"
           style="stroke-width:1;stroke-miterlimit:4;stroke-dasharray:none">
          <path
             transform="matrix(0.60994328,0,0,0.66535482,69.812878,-9.5670664)"
             d="m 54.819736,99.136612 c 0,4.668748 -4.128835,8.453508 -9.222011,8.453508 -5.093176,0 -9.222012,-3.78476 -9.222012,-8.453508 0,-4.668745 4.128836,-8.45351 9.222012,-8.45351 5.093176,0 9.222011,3.784765 9.222011,8.45351 z"
             sodipodi:ry="8.4535103"
             sodipodi:rx="9.2220116"
             sodipodi:cy="99.136612"
             sodipodi:cx="45.597725"
             id="path2814"
             style="fill:none;stroke:#000000;stroke-width:1.56974324;stroke-linecap:butt;stroke-miterlimit:4;stroke-opacity:1;stroke-dasharray:none;stroke-dashoffset:0"
             sodipodi:type="arc" />
          <path
             sodipodi:type="arc"
             style="fill:none;stroke:#000000;stroke-width:1.56974324;stroke-linecap:butt;stroke-miterlimit:4;stroke-opacity:1;stroke-dasharray:none;stroke-dashoffset:0"
             id="path2816"
             sodipodi:cx="45.597725"
             sodipodi:cy="99.136612"
             sodipodi:rx="9.2220116"
             sodipodi:ry="8.4535103"
             d="m 54.819736,99.136612 c 0,4.668748 -4.128835,8.453508 -9.222011,8.453508 -5.093176,0 -9.222012,-3.78476 -9.222012,-8.453508 0,-4.668745 4.128836,-8.45351 9.222012,-8.45351 5.093176,0 9.222011,3.784765 9.222011,8.45351 z"
             transform="matrix(0.60994328,0,0,0.66535482,159.81288,-9.5670664)" />
        </g>
        <g
           transform="translate(-0.30279186,72.34121)"
           id="g2824"
           style="stroke-width:1;stroke-miterlimit:4;stroke-dasharray:none">
          <path
             sodipodi:type="arc"
             style="fill:none;stroke:#000000;stroke-width:1.56974324;stroke-linecap:butt;stroke-miterlimit:4;stroke-opacity:1;stroke-dasharray:none;stroke-dashoffset:0"
             id="path2826"
             sodipodi:cx="45.597725"
             sodipodi:cy="99.136612"
             sodipodi:rx="9.2220116"
             sodipodi:ry="8.4535103"
             d="m 54.819736,99.136612 c 0,4.668748 -4.128835,8.453508 -9.222011,8.453508 -5.093176,0 -9.222012,-3.78476 -9.222012,-8.453508 0,-4.668745 4.128836,-8.45351 9.222012,-8.45351 5.093176,0 9.222011,3.784765 9.222011,8.45351 z"
             transform="matrix(0.60994328,0,0,0.66535482,69.812878,-9.5670664)" />
          <path
             transform="matrix(0.60994328,0,0,0.66535482,159.81288,-9.5670664)"
             d="m 54.819736,99.136612 c 0,4.668748 -4.128835,8.453508 -9.222011,8.453508 -5.093176,0 -9.222012,-3.78476 -9.222012,-8.453508 0,-4.668745 4.128836,-8.45351 9.222012,-8.45351 5.093176,0 9.222011,3.784765 9.222011,8.45351 z"
             sodipodi:ry="8.4535103"
             sodipodi:rx="9.2220116"
             sodipodi:cy="99.136612"
             sodipodi:cx="45.597725"
             id="path2828"
             style="fill:none;stroke:#000000;stroke-width:1.56974324;stroke-linecap:butt;stroke-miterlimit:4;stroke-opacity:1;stroke-dasharray:none;stroke-dashoffset:0"
             sodipodi:type="arc" />
        </g>
      </g>
    </g>
    <rect
       style="fill:none;stroke:#000000;stroke-width:1;stroke-linecap:butt;stroke-miterlimit:4;stroke-opacity:1;stroke-dasharray:none;stroke-dashoffset:0"
       id="rect2889"
       width="8.860054"
       height="19.132633"
       x="71.725983"
       y="53.131626" />
    <rect
       style="fill:none;stroke:#000000;stroke-width:1;stroke-linecap:butt;stroke-miterlimit:4;stroke-opacity:1;stroke-dasharray:none;stroke-dashoffset:0"
       id="rect2891"
       width="35.43214"
       height="10.631821"
       x="58.439945"
       y="57.382038" />
    <path
       transform="matrix(2.1476682,0,0,2.1416367,-272.15297,-284.84124)"
       d="m 164.58728,157.79886 c 0,0.21221 -0.17203,0.38425 -0.38425,0.38425 -0.21221,0 -0.38425,-0.17204 -0.38425,-0.38425 0,-0.21222 0.17204,-0.38425 0.38425,-0.38425 0.21222,0 0.38425,0.17203 0.38425,0.38425 z"
       sodipodi:ry="0.38425049"
       sodipodi:rx="0.38425049"
       sodipodi:cy="157.79886"
       sodipodi:cx="164.20303"
       id="path2908"
       style="fill:none;stroke:#000000;stroke-width:0.46627648;stroke-linecap:butt;stroke-miterlimit:4;stroke-opacity:1;stroke-dasharray:none;stroke-dashoffset:0"
       sodipodi:type="arc" />
    <path
       sodipodi:type="arc"
       style="fill:none;stroke:#000000;stroke-width:0.46627648;stroke-linecap:butt;stroke-miterlimit:4;stroke-opacity:1;stroke-dasharray:none;stroke-dashoffset:0"
       id="path2910"
       sodipodi:cx="164.20303"
       sodipodi:cy="157.79886"
       sodipodi:rx="0.38425049"
       sodipodi:ry="0.38425049"
       d="m 164.58728,157.79886 c 0,0.21221 -0.17203,0.38425 -0.38425,0.38425 -0.21221,0 -0.38425,-0.17204 -0.38425,-0.38425 0,-0.21222 0.17204,-0.38425 0.38425,-0.38425 0.21222,0 0.38425,0.17203 0.38425,0.38425 z"
       transform="matrix(2.1476682,0,0,2.1416367,-272.0244,-265.74838)" />
    <path
       transform="matrix(1.1556897,0,0,1.3973776,-274.38663,10.947465)"
       d="m 330.96773,130.13283 c 0,15.56248 -15.25375,28.17837 -34.07021,28.17837 -18.81646,0 -34.07021,-12.61589 -34.07021,-28.17837 0,-15.56248 15.25375,-28.17837 34.07021,-28.17837 18.81646,0 34.07021,12.61589 34.07021,28.17837 z"
       sodipodi:ry="28.178368"
       sodipodi:rx="34.07021"
       sodipodi:cy="130.13283"
       sodipodi:cx="296.89752"
       id="path2945"
       style="fill:none;stroke:#000000;stroke-width:0.78690534;stroke-linecap:butt;stroke-miterlimit:4;stroke-opacity:1;stroke-dasharray:none;stroke-dashoffset:0"
       sodipodi:type="arc" />
    <rect
       y="108.44238"
       x="103.43114"
       height="10.628883"
       width="10.631502"
       id="rect2947"
       style="fill:none;stroke:#000000;stroke-width:1;stroke-linecap:butt;stroke-miterlimit:4;stroke-opacity:1;stroke-dasharray:none;stroke-dashoffset:0" />
    <rect
       style="fill:none;stroke:#000000;stroke-width:1;stroke-linecap:butt;stroke-miterlimit:4;stroke-opacity:1;stroke-dasharray:none;stroke-dashoffset:0"
       id="rect2949"
       width="10.631502"
       height="10.628883"
       x="103.43114"
       y="265.94238" />
    <path
       id="path2951"
       d="m 138.82129,112.8451 c 0,5.65908 -4.5876,10.24667 -10.24668,10.24667 -5.65909,0 -10.24668,-4.58759 -10.24668,-10.24667 0,-5.65908 4.58759,-10.24668 10.24668,-10.24668 5.65908,0 10.24668,4.5876 10.24668,10.24668 z"
       style="fill:none;stroke:#000000;stroke-width:1;stroke-linecap:butt;stroke-miterlimit:4;stroke-opacity:1;stroke-dashoffset:0;stroke-dasharray:none" />
    <path
       id="path2953"
       d="m 138.82129,272.18096 c 0,5.65908 -4.5876,10.24668 -10.24668,10.24668 -5.65909,0 -10.24668,-4.5876 -10.24668,-10.24668 0,-5.65908 4.58759,-10.24668 10.24668,-10.24668 5.65908,0 10.24668,4.5876 10.24668,10.24668 z"
       style="fill:none;stroke:#000000;stroke-width:1;stroke-linecap:butt;stroke-miterlimit:4;stroke-opacity:1;stroke-dashoffset:0;stroke-dasharray:none" />
    <path
       id="path2957"
       d="m 115.09908,137.41721 c -0.4357,0 -0.78194,0.35451 -0.8125,0.78125 l -7.90625,0 0,4.25 -13.28125,0 0,10.625 13.28125,0 0,4.25 8.03125,0 c -3.5e-4,0.01 0,0.0213 0,0.0312 0,0.45448 0.38799,0.8125 0.84375,0.8125 0.45578,0 0.8125,-0.35802 0.8125,-0.8125 0,-0.4545 -0.35672,-0.84375 -0.8125,-0.84375 -0.01,0 -0.0213,-3.5e-4 -0.0312,0 l 0,-3.4375 13.3125,0 0,-10.625 -13.3125,0 0,-3.40625 c 0.39725,-0.0594 0.71875,-0.36859 0.71875,-0.78125 0,-0.4545 -0.38797,-0.84375 -0.84375,-0.84375 z"
       style="fill:none;stroke:#000000;stroke-width:1;stroke-linecap:butt;stroke-miterlimit:4;stroke-opacity:1;stroke-dashoffset:0;stroke-dasharray:none" />
    <path
       style="fill:none;stroke:#000000;stroke-width:1;stroke-linecap:butt;stroke-miterlimit:4;stroke-opacity:1;stroke-dashoffset:0;stroke-dasharray:none"
       d="m 115.09908,227.41721 c -0.4357,0 -0.78194,0.35451 -0.8125,0.78125 l -7.90625,0 0,4.25 -13.28125,0 0,10.625 13.28125,0 0,4.25 8.03125,0 c -3.5e-4,0.01 0,0.0213 0,0.0312 0,0.45448 0.38799,0.8125 0.84375,0.8125 0.45578,0 0.8125,-0.35802 0.8125,-0.8125 0,-0.4545 -0.35672,-0.84375 -0.8125,-0.84375 -0.01,0 -0.0213,-3.5e-4 -0.0312,0 l 0,-3.4375 13.3125,0 0,-10.625 -13.3125,0 0,-3.40625 c 0.39725,-0.0594 0.71875,-0.36859 0.71875,-0.78125 0,-0.4545 -0.38797,-0.84375 -0.84375,-0.84375 z"
       id="path2959" />
    <path
       style="fill:none;stroke:#000000;stroke-width:1;stroke-linecap:butt;stroke-miterlimit:4;stroke-opacity:1;stroke-dashoffset:0;stroke-dasharray:none"
       d="m 132.14645,258.36287 c 0,1.97267 -1.59917,3.57184 -3.57184,3.57184 -1.97267,0 -3.57184,-1.59917 -3.57184,-3.57184 0,-1.97267 1.59917,-3.57184 3.57184,-3.57184 1.97267,0 3.57184,1.59917 3.57184,3.57184 z"
       id="path2961" />
    <path
       id="path2963"
       d="m 132.14645,126.61128 c 0,1.97267 -1.59917,3.57184 -3.57184,3.57184 -1.97267,0 -3.57184,-1.59917 -3.57184,-3.57184 0,-1.97267 1.59917,-3.57184 3.57184,-3.57184 1.97267,0 3.57184,1.59917 3.57184,3.57184 z"
       style="fill:none;stroke:#000000;stroke-width:1;stroke-linecap:butt;stroke-miterlimit:4;stroke-opacity:1;stroke-dashoffset:0;stroke-dasharray:none" />
    <rect
       ry="35.433071"
       rx="35.433071"
       y="102.65972"
       x="72.469933"
       height="179.6942"
       width="55.871277"
       id="rect2965"
       style="fill:none;stroke:#000000;stroke-width:1;stroke-linecap:butt;stroke-miterlimit:4;stroke-opacity:1;stroke-dasharray:none;stroke-dashoffset:0" />
    <rect
       style="fill:none;stroke:#000000;stroke-width:1;stroke-linecap:butt;stroke-miterlimit:4;stroke-opacity:1;stroke-dasharray:none;stroke-dashoffset:0"
       id="rect2967"
       width="28.936539"
       height="179.69614"
       x="99.404076"
       y="102.65875" />
    <path
       id="path3025"
       d="m 259.875,82.92225 c -0.35369,0 -0.71804,0.02752 -1.0625,0.0625 l -27.125,0 -1,0 0,0.03125 C 215.68004,83.68228 203.75,99.21884 203.75,118.42225 l 0,15.5 c 20.0039,1.87192 35.65625,18.69364 35.65625,39.1875 0,20.49386 -15.65235,37.34683 -35.65625,39.21875 l 0,14.90625 c 0,19.2031 11.93039,34.7395 26.9375,35.40625 l 0,0.0312 1,0 26.9375,0 c 0.40687,0.0491 0.82988,0.0937 1.25,0.0937 5.65908,0 10.25,-4.59092 10.25,-10.25 0,-5.65908 -4.59092,-10.25 -10.25,-10.25 -0.0829,0 -0.16754,-0.002 -0.25,0 l 0,-0.0312 c -1.85323,-0.1312 -3.34375,-1.64463 -3.34375,-3.53125 0,-1.88696 1.49005,-3.43179 3.34375,-3.5625 l 0,-7.90625 0,-3.84375 -13.125,0 0,3.4375 c 0.01,-3.5e-4 0.0213,0 0.0312,0 0.45578,0 0.8125,0.38925 0.8125,0.84375 0,0.45448 -0.35672,0.8125 -0.8125,0.8125 -0.45576,0 -0.84375,-0.35802 -0.84375,-0.8125 0,-0.01 -3.5e-4,-0.0212 0,-0.0312 l -8.03125,0 0,-4.25 -13.28125,0 0,-10.625 13.28125,0 0,-4.25 7.90625,0 c 0.0306,-0.42674 0.3768,-0.78125 0.8125,-0.78125 0.45578,0 0.84375,0.38925 0.84375,0.84375 0,0.41266 -0.3215,0.72185 -0.71875,0.78125 l 0,3.40625 13.125,0 0,-79.375 -13.125,0 0,3.4375 c 0.01,-3.5e-4 0.0213,0 0.0312,0 0.45578,0 0.8125,0.38925 0.8125,0.84375 0,0.45448 -0.35672,0.8125 -0.8125,0.8125 -0.45576,0 -0.84375,-0.35802 -0.84375,-0.8125 0,-0.01 -3.5e-4,-0.0212 0,-0.0312 l -8.03125,0 0,-4.25 -13.28125,0 0,-10.625 13.28125,0 0,-4.25 7.90625,0 c 0.0306,-0.42674 0.3768,-0.78125 0.8125,-0.78125 0.45578,0 0.84375,0.38925 0.84375,0.84375 0,0.41266 -0.3215,0.72185 -0.71875,0.78125 l 0,3.40625 13.125,0 0,-4.34375 0,-7.9375 c -1.8537,-0.13071 -3.34375,-1.64429 -3.34375,-3.53125 0,-1.97267 1.62108,-3.59375 3.59375,-3.59375 0.11733,0 0.22932,0.0202 0.34375,0.0312 5.50062,-0.18083 9.90625,-4.67432 9.90625,-10.21875 0,-5.65908 -4.59092,-10.25 -10.25,-10.25 z m -25.15625,5.84375 10.625,0 0,10.625 -10.625,0 0,-10.625 z m 0,157.5 10.625,0 0,10.625 -10.625,0 0,-10.625 z"
       style="fill:none;stroke:#000000;stroke-width:1;stroke-linecap:butt;stroke-miterlimit:4;stroke-opacity:1;stroke-dasharray:none;stroke-dashoffset:0" />
    <path
       style="fill:none;stroke:#000000;stroke-width:1;stroke-linecap:butt;stroke-miterlimit:4;stroke-dashoffset:0;stroke-opacity:1;stroke-dasharray:none"
       d="M 391.5 132.21875 L 391.5 135.78125 L 370.25 135.78125 L 370.25 146.40625 L 391.5 146.40625 L 391.5 149.9375 L 442.25 149.9375 L 442.25 146.40625 L 463.5 146.40625 L 463.5 135.78125 L 442.25 135.78125 L 442.25 132.21875 L 391.5 132.21875 z "
       transform="translate(0,-27.64025)"
       id="rect3027" />
    <path
       id="path3034"
       d="m 48.357024,8.5370116 50.73964,0 0,17.7159204 -50.73964,0 0,-17.7159204 z"
       style="fill:none;stroke:#000000;stroke-width:1;stroke-linecap:butt;stroke-miterlimit:4;stroke-opacity:1;stroke-dashoffset:0;stroke-dasharray:none" />
    <path
       id="path3036"
       d="m 27.096624,12.080962 93.260426,0 0,10.62803 -93.260426,0 0,-10.62803 z"
       style="fill:none;stroke:#000000;stroke-width:1;stroke-linecap:butt;stroke-miterlimit:4;stroke-opacity:1;stroke-dashoffset:0;stroke-dasharray:none" />
    <path
       id="path3039"
       d="m 391.5,136.5785 0,3.5625 -21.25,0 0,10.625 21.25,0 0,3.53125 50.75,0 0,-3.53125 21.25,0 0,-10.625 -21.25,0 0,-3.5625 -50.75,0 z"
       style="fill:none;stroke:#000000;stroke-width:1;stroke-linecap:butt;stroke-miterlimit:4;stroke-opacity:1;stroke-dashoffset:0;stroke-dasharray:none" />
    <path
       style="fill:none;stroke:#000000;stroke-width:1;stroke-linecap:butt;stroke-miterlimit:4;stroke-opacity:1;stroke-dashoffset:0;stroke-dasharray:none"
       d="m 52.59426,89.83241 c 0,4.89273 -3.965979,8.859071 -8.858261,8.859071 -4.892289,0 -8.858268,-3.966341 -8.858268,-8.859071 0,-4.892731 3.965979,-8.859072 8.858268,-8.859072 4.892282,0 8.858261,3.966341 8.858261,8.859072 z"
       id="path3043" />
    <path
       style="fill:none;stroke:#000000;stroke-width:1;stroke-linecap:butt;stroke-miterlimit:4;stroke-opacity:1;stroke-dashoffset:0;stroke-dasharray:none"
       d="m 49.050794,89.832409 c 0,2.935115 -2.379516,5.314496 -5.314796,5.314496 -2.935285,0 -5.314801,-2.379381 -5.314801,-5.314496 0,-2.935115 2.379516,-5.314496 5.314801,-5.314496 2.93528,0 5.314796,2.379381 5.314796,5.314496 z"
       id="path3041" />
    <path
       style="fill:none;stroke:#000000;stroke-width:1;stroke-linecap:butt;stroke-miterlimit:4;stroke-opacity:1;stroke-dashoffset:0;stroke-dasharray:none"
       d="m 367.01004,177.03733 c -4.89229,0 -8.875,3.95102 -8.875,8.84375 0,4.89273 3.98271,8.875 8.875,8.875 4.89228,0 8.84375,-3.98227 8.84375,-8.875 0,-4.89273 -3.95147,-8.84375 -8.84375,-8.84375 z m 0,3.53125 c 2.93528,0 5.3125,2.37739 5.3125,5.3125 0,2.93511 -2.37722,5.3125 -5.3125,5.3125 -2.93529,0 -5.3125,-2.37738 -5.3125,-5.3125 0,-2.93511 2.37721,-5.3125 5.3125,-5.3125 z"
       id="path3050" />
    <path
       id="path3055"
       d="m 399.01004,177.03733 c -4.89229,0 -8.875,3.95102 -8.875,8.84375 0,4.89273 3.98271,8.875 8.875,8.875 4.89228,0 8.84375,-3.98227 8.84375,-8.875 0,-4.89273 -3.95147,-8.84375 -8.84375,-8.84375 z m 0,3.53125 c 2.93528,0 5.3125,2.37739 5.3125,5.3125 0,2.93511 -2.37722,5.3125 -5.3125,5.3125 -2.93529,0 -5.3125,-2.37738 -5.3125,-5.3125 0,-2.93511 2.37721,-5.3125 5.3125,-5.3125 z"
       style="fill:none;stroke:#000000;stroke-width:1;stroke-linecap:butt;stroke-miterlimit:4;stroke-opacity:1;stroke-dashoffset:0;stroke-dasharray:none" />
    <path
       style="fill:none;stroke:#000000;stroke-width:1;stroke-linecap:butt;stroke-miterlimit:4;stroke-opacity:1;stroke-dashoffset:0;stroke-dasharray:none"
       d="m 431.01004,177.03733 c -4.89229,0 -8.875,3.95102 -8.875,8.84375 0,4.89273 3.98271,8.875 8.875,8.875 4.89228,0 8.84375,-3.98227 8.84375,-8.875 0,-4.89273 -3.95147,-8.84375 -8.84375,-8.84375 z m 0,3.53125 c 2.93528,0 5.3125,2.37739 5.3125,5.3125 0,2.93511 -2.37722,5.3125 -5.3125,5.3125 -2.93529,0 -5.3125,-2.37738 -5.3125,-5.3125 0,-2.93511 2.37721,-5.3125 5.3125,-5.3125 z"
       id="path3057" />
    <path
       id="path3059"
       d="m 461.01004,177.03733 c -4.89229,0 -8.875,3.95102 -8.875,8.84375 0,4.89273 3.98271,8.875 8.875,8.875 4.89228,0 8.84375,-3.98227 8.84375,-8.875 0,-4.89273 -3.95147,-8.84375 -8.84375,-8.84375 z m 0,3.53125 c 2.93528,0 5.3125,2.37739 5.3125,5.3125 0,2.93511 -2.37722,5.3125 -5.3125,5.3125 -2.93529,0 -5.3125,-2.37738 -5.3125,-5.3125 0,-2.93511 2.37721,-5.3125 5.3125,-5.3125 z"
       style="fill:none;stroke:#000000;stroke-width:1;stroke-linecap:butt;stroke-miterlimit:4;stroke-opacity:1;stroke-dashoffset:0;stroke-dasharray:none" />
    <path
       style="fill:none;stroke:#000000;stroke-width:1;stroke-linecap:butt;stroke-miterlimit:4;stroke-dashoffset:0;stroke-opacity:1;stroke-dasharray:none"
       d="m 81.094177,371.65033 8.860054,0 0,19.13263 -8.860054,0 0,-19.13263 z"
       id="rect2862" />
    <path
       style="fill:none;stroke:#000000;stroke-width:1;stroke-linecap:butt;stroke-miterlimit:4;stroke-dashoffset:0;stroke-opacity:1;stroke-dasharray:none"
       d="m 76.666634,375.89975 17.715137,0 0,10.6338 -17.715137,0 0,-10.6338 z"
       id="rect2864" />
    <path
       transform="matrix(2.1476682,0,0,2.1416367,-262.78477,33.677459)"
       style="fill:none;stroke:#000000;stroke-width:0.46627648;stroke-linecap:butt;stroke-miterlimit:4;stroke-dashoffset:0;stroke-opacity:1;stroke-dasharray:none"
       d="m 164.58728,157.79886 c 0,0.21221 -0.17203,0.38425 -0.38425,0.38425 -0.21221,0 -0.38425,-0.17204 -0.38425,-0.38425 0,-0.21222 0.17204,-0.38425 0.38425,-0.38425 0.21222,0 0.38425,0.17203 0.38425,0.38425 z"
       id="path2866" />
    <path
       transform="matrix(2.1476682,0,0,2.1416367,-262.6562,52.770319)"
       style="fill:none;stroke:#000000;stroke-width:0.46627648;stroke-linecap:butt;stroke-miterlimit:4;stroke-dashoffset:0;stroke-opacity:1;stroke-dasharray:none"
       d="m 164.58728,157.79886 c 0,0.21221 -0.17203,0.38425 -0.38425,0.38425 -0.21221,0 -0.38425,-0.17204 -0.38425,-0.38425 0,-0.21222 0.17204,-0.38425 0.38425,-0.38425 0.21222,0 0.38425,0.17203 0.38425,0.38425 z"
       id="path2868" />
    <path
       sodipodi:type="arc"
       style="fill:none;stroke:#000000;stroke-width:0.68854306;stroke-linecap:butt;stroke-miterlimit:4;stroke-opacity:1;stroke-dasharray:none;stroke-dashoffset:0"
       id="path2870"
       sodipodi:cx="296.89752"
       sodipodi:cy="130.13283"
       sodipodi:rx="34.07021"
       sodipodi:ry="28.178368"
       d="m 330.96773,130.13283 c 0,15.56248 -15.25375,28.17837 -34.07021,28.17837 -18.81646,0 -34.07021,-12.61589 -34.07021,-28.17837 0,-15.56248 15.25375,-28.17837 34.07021,-28.17837 18.81646,0 34.07021,12.61589 34.07021,28.17837 z"
       transform="matrix(1.3208019,0,0,1.5969823,-316.41444,303.20571)" />
    <rect
       style="fill:none;stroke:#000000;stroke-width:1;stroke-linecap:butt;stroke-miterlimit:4;stroke-opacity:1;stroke-dasharray:none;stroke-dashoffset:0"
       id="rect2872"
       width="10.631502"
       height="10.628883"
       x="112.79933"
       y="442.96109" />
    <rect
       y="568.46106"
       x="112.79933"
       height="10.628883"
       width="10.631502"
       id="rect2874"
       style="fill:none;stroke:#000000;stroke-width:1;stroke-linecap:butt;stroke-miterlimit:4;stroke-opacity:1;stroke-dasharray:none;stroke-dashoffset:0" />
    <path
       style="fill:none;stroke:#000000;stroke-width:1;stroke-linecap:butt;stroke-miterlimit:4;stroke-opacity:1;stroke-dashoffset:0;stroke-dasharray:none"
       d="m 148.18949,435.3638 c 0,5.65908 -4.5876,10.24667 -10.24668,10.24667 -5.65909,0 -10.24668,-4.58759 -10.24668,-10.24667 0,-5.65908 4.58759,-10.24668 10.24668,-10.24668 5.65908,0 10.24668,4.5876 10.24668,10.24668 z"
       id="path2876" />
    <path
       style="fill:none;stroke:#000000;stroke-width:1;stroke-linecap:butt;stroke-miterlimit:4;stroke-opacity:1;stroke-dashoffset:0;stroke-dasharray:none"
       d="m 148.18949,586.69966 c 0,5.65908 -4.5876,10.24668 -10.24668,10.24668 -5.65909,0 -10.24668,-4.5876 -10.24668,-10.24668 0,-5.65908 4.58759,-10.24668 10.24668,-10.24668 5.65908,0 10.24668,4.5876 10.24668,10.24668 z"
       id="path2878" />
    <path
       id="path2884"
       d="m 141.51465,572.88157 c 0,1.97267 -1.59917,3.57184 -3.57184,3.57184 -1.97267,0 -3.57184,-1.59917 -3.57184,-3.57184 0,-1.97267 1.59917,-3.57184 3.57184,-3.57184 1.97267,0 3.57184,1.59917 3.57184,3.57184 z"
       style="fill:none;stroke:#000000;stroke-width:1;stroke-linecap:butt;stroke-miterlimit:4;stroke-opacity:1;stroke-dashoffset:0;stroke-dasharray:none" />
    <path
       style="fill:none;stroke:#000000;stroke-width:1;stroke-linecap:butt;stroke-miterlimit:4;stroke-opacity:1;stroke-dashoffset:0;stroke-dasharray:none"
       d="m 141.51465,449.12998 c 0,1.97267 -1.59917,3.57184 -3.57184,3.57184 -1.97267,0 -3.57184,-1.59917 -3.57184,-3.57184 0,-1.97267 1.59917,-3.57184 3.57184,-3.57184 1.97267,0 3.57184,1.59917 3.57184,3.57184 z"
       id="path2886" />
    <rect
       style="fill:none;stroke:#000000;stroke-width:1;stroke-linecap:butt;stroke-miterlimit:4;stroke-opacity:1;stroke-dasharray:none;stroke-dashoffset:0"
       id="rect2888"
       width="55.871429"
       height="171.8503"
       x="81.838051"
       y="425.05347"
       rx="35.43317"
       ry="33.886372" />
    <rect
       y="425.11502"
       x="108.77222"
       height="171.80272"
       width="28.936649"
       id="rect2890"
       style="fill:none;stroke:#000000;stroke-width:1;stroke-linecap:butt;stroke-miterlimit:4;stroke-opacity:1;stroke-dasharray:none;stroke-dashoffset:0" />
    <path
       style="fill:none;stroke:#000000;stroke-width:1;stroke-linecap:butt;stroke-miterlimit:4;stroke-opacity:1;stroke-dashoffset:0;stroke-dasharray:none"
       d="m 57.724746,327.05612 68.741104,0 0,17.7151 -68.741104,0 0,-17.7151 z"
       id="path2892" />
    <path
       style="fill:none;stroke:#000000;stroke-width:1;stroke-linecap:butt;stroke-miterlimit:4;stroke-opacity:1;stroke-dashoffset:0;stroke-dasharray:none"
       d="m 36.465112,330.5999 111.260368,0 0,10.62755 -111.260368,0 0,-10.62755 z"
       id="path2894" />
    <path
       id="path2896"
       d="m 61.962457,408.35111 c 0,4.89273 -3.965979,8.85907 -8.858261,8.85907 -4.892289,0 -8.858268,-3.96634 -8.858268,-8.85907 0,-4.89273 3.965979,-8.85907 8.858268,-8.85907 4.892282,0 8.858261,3.96634 8.858261,8.85907 z"
       style="fill:none;stroke:#000000;stroke-width:1;stroke-linecap:butt;stroke-miterlimit:4;stroke-opacity:1;stroke-dashoffset:0;stroke-dasharray:none" />
    <path
       id="path2898"
       d="m 58.418991,408.35111 c 0,2.93511 -2.379516,5.31449 -5.314796,5.31449 -2.935285,0 -5.314801,-2.37938 -5.314801,-5.31449 0,-2.93512 2.379516,-5.3145 5.314801,-5.3145 2.93528,0 5.314796,2.37938 5.314796,5.3145 z"
       style="fill:none;stroke:#000000;stroke-width:1;stroke-linecap:butt;stroke-miterlimit:4;stroke-opacity:1;stroke-dashoffset:0;stroke-dasharray:none" />
    <g
       id="g2916"
       transform="translate(0,-26.959222)"
       style="stroke-width:1;stroke-miterlimit:4;stroke-dasharray:none">
      <path
         id="path2904"
         d="m 133.17751,491.6098 c -0.45576,0 -0.8125,0.358 -0.8125,0.8125 0,0.01 -3.5e-4,0.0213 0,0.0312 l -7.9375,0 0,4.25 -4.4375,0 0,10.625 4.4375,0 0,4.25 8.0625,0 c 0.0306,0.42671 0.37679,0.78125 0.8125,0.78125 0.45577,0 0.84375,-0.38928 0.84375,-0.84375 0,-0.4545 -0.38798,-0.8125 -0.84375,-0.8125 -0.011,0 -0.0204,-4.2e-4 -0.0312,0 l 0,-3.375 4.4375,0 0,-10.625 -4.4375,0 0,-3.46875 c 0.41134,-0.0467 0.75,-0.38984 0.75,-0.8125 0,-0.4545 -0.38798,-0.8125 -0.84375,-0.8125 z"
         style="fill:none;stroke:#000000;stroke-width:1;stroke-linecap:butt;stroke-miterlimit:4;stroke-opacity:1;stroke-dashoffset:0;stroke-dasharray:none" />
      <path
         style="fill:none;stroke:#000000;stroke-width:1;stroke-linecap:butt;stroke-miterlimit:4;stroke-opacity:1;stroke-dashoffset:0;stroke-dasharray:none"
         d="m 133.17751,563.6098 c -0.45576,0 -0.8125,0.358 -0.8125,0.8125 0,0.01 -3.5e-4,0.0213 0,0.0312 l -7.9375,0 0,4.25 -4.4375,0 0,10.625 4.4375,0 0,4.25 8.0625,0 c 0.0306,0.42671 0.37679,0.78125 0.8125,0.78125 0.45577,0 0.84375,-0.38928 0.84375,-0.84375 0,-0.4545 -0.38798,-0.8125 -0.84375,-0.8125 -0.011,0 -0.0204,-4.2e-4 -0.0312,0 l 0,-3.375 4.4375,0 0,-10.625 -4.4375,0 0,-3.46875 c 0.41134,-0.0467 0.75,-0.38984 0.75,-0.8125 0,-0.4545 -0.38798,-0.8125 -0.84375,-0.8125 z"
         id="path2914" />
    </g>
    <path
       style="fill:none;stroke:#000000;stroke-width:1;stroke-linecap:butt;stroke-miterlimit:4;stroke-opacity:1;stroke-dashoffset:0;stroke-dasharray:none"
       d="M 370.28125 460.0625 L 370.28125 463.59375 L 349 463.59375 L 349 474.21875 L 370.28125 474.21875 L 370.28125 477.78125 L 439 477.78125 L 439 474.21875 L 460.28125 474.21875 L 460.28125 463.59375 L 439 463.59375 L 439 460.0625 L 370.28125 460.0625 z "
       transform="translate(0,-27.64025)"
       id="path2956" />
    <path
       id="path2962"
       d="m 380.18074,470.60602 0,3.53125 -21.28125,0 0,10.625 21.28125,0 0,3.5625 68.71875,0 0,-3.5625 21.28125,0 0,-10.625 -21.28125,0 0,-3.53125 -68.71875,0 z"
       style="fill:none;stroke:#000000;stroke-width:1;stroke-linecap:butt;stroke-miterlimit:4;stroke-opacity:1;stroke-dashoffset:0;stroke-dasharray:none" />
    <path
       id="path2964"
       d="m 360.36199,515.79956 c -15.47639,0 -27.9375,15.1332 -27.9375,33.90625 l 0,7.5 c 21.96453,2.97977 38.875,21.78057 38.875,44.5625 0,22.78193 -16.91047,41.61398 -38.875,44.59375 l 0,7.40625 c 0,18.36486 11.93034,33.2061 26.9375,33.84375 l 0,0.0625 28.65625,0 c 0.16944,0.008 0.32849,0.0312 0.5,0.0312 5.65908,0 10.25,-4.59092 10.25,-10.25 0,-5.65908 -4.59092,-10.25 -10.25,-10.25 -0.0747,0 -0.14438,-0.002 -0.21875,0 l 0,-0.0312 c -1.86807,-0.11587 -3.34375,-1.63399 -3.34375,-3.53125 0,-1.8975 1.47534,-3.44699 3.34375,-3.5625 l 0,-6.3125 0,-10.65625 -4.4375,0 0,3.375 c 0.0108,-4.2e-4 0.0203,0 0.0312,0 0.45577,0 0.84375,0.358 0.84375,0.8125 0,0.45447 -0.38798,0.84375 -0.84375,0.84375 -0.43571,0 -0.7819,-0.35454 -0.8125,-0.78125 l -8.0625,0 0,-4.25 -4.4375,0 0,-10.625 4.4375,0 0,-4.25 7.9375,0 c -3.5e-4,-0.01 0,-0.0213 0,-0.0312 0,-0.4545 0.35674,-0.8125 0.8125,-0.8125 0.45577,0 0.84375,0.358 0.84375,0.8125 0,0.42266 -0.33866,0.7658 -0.75,0.8125 l 0,3.46875 4.4375,0 0,-61.375 -4.4375,0 0,3.375 c 0.0108,-4.2e-4 0.0203,0 0.0312,0 0.45577,0 0.84375,0.358 0.84375,0.8125 0,0.45447 -0.38798,0.84375 -0.84375,0.84375 -0.43571,0 -0.7819,-0.35454 -0.8125,-0.78125 l -8.0625,0 0,-4.25 -4.4375,0 0,-10.625 4.4375,0 0,-4.25 7.9375,0 c -3.5e-4,-0.01 0,-0.0213 0,-0.0312 0,-0.4545 0.35674,-0.8125 0.8125,-0.8125 0.45577,0 0.84375,0.358 0.84375,0.8125 0,0.42266 -0.33866,0.7658 -0.75,0.8125 l 0,3.46875 4.4375,0 0,-10.78125 0,-6.28125 c -1.86807,-0.11587 -3.34375,-1.63399 -3.34375,-3.53125 0,-1.97267 1.58983,-3.59375 3.5625,-3.59375 0.11733,0 0.22932,0.0202 0.34375,0.0312 5.50062,-0.18083 9.90625,-4.67432 9.90625,-10.21875 0,-5.65908 -4.59092,-10.25 -10.25,-10.25 -0.0747,0 -0.14438,-0.002 -0.21875,0 l -26.5,0 c -0.47746,-0.0292 -0.95386,-0.0625 -1.4375,-0.0625 z m 3.03125,17.90625 10.625,0 0,10.625 -10.625,0 0,-10.625 z m 0,125.5 10.625,0 0,10.625 -10.625,0 0,-10.625 z"
       style="fill:none;stroke:#000000;stroke-width:1;stroke-linecap:butt;stroke-miterlimit:4;stroke-opacity:1;stroke-dashoffset:0;stroke-dasharray:none" />
    <path
       id="path2966"
       d="m 375.01004,383.03733 c -4.89229,0 -8.875,3.95102 -8.875,8.84375 0,4.89273 3.98271,8.875 8.875,8.875 4.89228,0 8.84375,-3.98227 8.84375,-8.875 0,-4.89273 -3.95147,-8.84375 -8.84375,-8.84375 z m 0,3.53125 c 2.93528,0 5.3125,2.37739 5.3125,5.3125 0,2.93511 -2.37722,5.3125 -5.3125,5.3125 -2.93529,0 -5.3125,-2.37738 -5.3125,-5.3125 0,-2.93511 2.37721,-5.3125 5.3125,-5.3125 z"
       style="fill:none;stroke:#000000;stroke-width:1;stroke-linecap:butt;stroke-miterlimit:4;stroke-opacity:1;stroke-dashoffset:0;stroke-dasharray:none" />
    <path
       style="fill:none;stroke:#000000;stroke-width:1;stroke-linecap:butt;stroke-miterlimit:4;stroke-opacity:1;stroke-dashoffset:0;stroke-dasharray:none"
       d="m 407.01004,383.03733 c -4.89229,0 -8.875,3.95102 -8.875,8.84375 0,4.89273 3.98271,8.875 8.875,8.875 4.89228,0 8.84375,-3.98227 8.84375,-8.875 0,-4.89273 -3.95147,-8.84375 -8.84375,-8.84375 z m 0,3.53125 c 2.93528,0 5.3125,2.37739 5.3125,5.3125 0,2.93511 -2.37722,5.3125 -5.3125,5.3125 -2.93529,0 -5.3125,-2.37738 -5.3125,-5.3125 0,-2.93511 2.37721,-5.3125 5.3125,-5.3125 z"
       id="path2968" />
    <path
       id="path2970"
       d="m 439.01004,383.03733 c -4.89229,0 -8.875,3.95102 -8.875,8.84375 0,4.89273 3.98271,8.875 8.875,8.875 4.89228,0 8.84375,-3.98227 8.84375,-8.875 0,-4.89273 -3.95147,-8.84375 -8.84375,-8.84375 z m 0,3.53125 c 2.93528,0 5.3125,2.37739 5.3125,5.3125 0,2.93511 -2.37722,5.3125 -5.3125,5.3125 -2.93529,0 -5.3125,-2.37738 -5.3125,-5.3125 0,-2.93511 2.37721,-5.3125 5.3125,-5.3125 z"
       style="fill:none;stroke:#000000;stroke-width:1;stroke-linecap:butt;stroke-miterlimit:4;stroke-opacity:1;stroke-dashoffset:0;stroke-dasharray:none" />
    <path
       style="fill:none;stroke:#000000;stroke-width:1;stroke-linecap:butt;stroke-miterlimit:4;stroke-opacity:1;stroke-dashoffset:0;stroke-dasharray:none"
       d="m 469.01004,383.03733 c -4.89229,0 -8.875,3.95102 -8.875,8.84375 0,4.89273 3.98271,8.875 8.875,8.875 4.89228,0 8.84375,-3.98227 8.84375,-8.875 0,-4.89273 -3.95147,-8.84375 -8.84375,-8.84375 z m 0,3.53125 c 2.93528,0 5.3125,2.37739 5.3125,5.3125 0,2.93511 -2.37722,5.3125 -5.3125,5.3125 -2.93529,0 -5.3125,-2.37738 -5.3125,-5.3125 0,-2.93511 2.37721,-5.3125 5.3125,-5.3125 z"
       id="path2972" />
    <path
       style="fill:none;stroke:#000000;stroke-width:1;stroke-linecap:butt;stroke-miterlimit:4;stroke-dashoffset:0;stroke-opacity:1;stroke-dasharray:none"
       d="M 529.21875 526.3125 L 529.21875 616.3125 L 641.71875 616.3125 L 641.71875 526.3125 L 529.21875 526.3125 z M 540.46875 529.6875 C 543.5753 529.6875 546.09375 532.20613 546.09375 535.3125 C 546.09375 538.41887 543.5753 540.9375 540.46875 540.9375 C 537.3622 540.9375 534.84375 538.41887 534.84375 535.3125 C 534.84375 532.20613 537.3622 529.6875 540.46875 529.6875 z M 630.46875 529.6875 C 633.5753 529.6875 636.09375 532.20613 636.09375 535.3125 C 636.09375 538.41887 633.5753 540.9375 630.46875 540.9375 C 627.3622 540.9375 624.84375 538.41887 624.84375 535.3125 C 624.84375 532.20613 627.3622 529.6875 630.46875 529.6875 z M 540.46875 601.6875 C 543.5753 601.6875 546.09375 604.20613 546.09375 607.3125 C 546.09375 610.41887 543.5753 612.9375 540.46875 612.9375 C 537.3622 612.9375 534.84375 610.41887 534.84375 607.3125 C 534.84375 604.20613 537.3622 601.6875 540.46875 601.6875 z M 630.46875 601.6875 C 633.5753 601.6875 636.09375 604.20613 636.09375 607.3125 C 636.09375 610.41887 633.5753 612.9375 630.46875 612.9375 C 627.3622 612.9375 624.84375 610.41887 624.84375 607.3125 C 624.84375 604.20613 627.3622 601.6875 630.46875 601.6875 z "
       transform="translate(0,-27.64025)"
       id="rect2976" />
  </g>
</svg>
